<svg xmlns="http://www.w3.org/2000/svg" style="background: transparent; background-color: transparent; color-scheme: light dark;" xmlns:xlink="http://www.w3.org/1999/xlink" version="1.1" width="211px" height="151px" viewBox="0 0 211 151"><defs/><g><g data-cell-id="0"><g data-cell-id="1"><g data-cell-id="2"><g transform="translate(0.5,0.5)"><rect x="0" y="10" width="120" height="60" fill="#ffffff" stroke="#000000" pointer-events="all" style="fill: light-dark(#ffffff, var(--ge-dark-color, #121212)); stroke: light-dark(rgb(0, 0, 0), rgb(255, 255, 255));"/></g></g><g data-cell-id="3"><g transform="translate(0.5,0.5)"><path d="M 120 85 C 120 76.72 133.43 70 150 70 C 157.96 70 165.59 71.58 171.21 74.39 C 176.84 77.21 180 81.02 180 85 L 180 135 C 180 143.28 166.57 150 150 150 C 133.43 150 120 143.28 120 135 Z" fill="#ffffff" stroke="#000000" stroke-miterlimit="10" pointer-events="all" style="fill: light-dark(#ffffff, var(--ge-dark-color, #121212)); stroke: light-dark(rgb(0, 0, 0), rgb(255, 255, 255));"/><path d="M 180 85 C 180 93.28 166.57 100 150 100 C 133.43 100 120 93.28 120 85" fill="none" stroke="#000000" stroke-miterlimit="10" pointer-events="all" style="stroke: light-dark(rgb(0, 0, 0), rgb(255, 255, 255));"/></g></g><g data-cell-id="4"><g transform="translate(0.5,0.5)"><path d="M 90 60 L 110 0 L 210 0 L 190 60 Z" fill="#ffffff" stroke="#000000" stroke-miterlimit="10" pointer-events="all" style="fill: light-dark(#ffffff, var(--ge-dark-color, #121212)); stroke: light-dark(rgb(0, 0, 0), rgb(255, 255, 255));"/></g></g></g></g></g></svg>